<?xml version="1.0" encoding="UTF-8" standalone="no"?>
<!-- Generator: Adobe Illustrator 15.1.0, SVG Export Plug-In . SVG Version: 6.00 Build 0)  -->

<svg
   xmlns:dc="http://purl.org/dc/elements/1.1/"
   xmlns:cc="http://creativecommons.org/ns#"
   xmlns:rdf="http://www.w3.org/1999/02/22-rdf-syntax-ns#"
   xmlns:svg="http://www.w3.org/2000/svg"
   xmlns="http://www.w3.org/2000/svg"
   xmlns:sodipodi="http://sodipodi.sourceforge.net/DTD/sodipodi-0.dtd"
   xmlns:inkscape="http://www.inkscape.org/namespaces/inkscape"
   version="1.1"
   id="Camada_1"
   x="0px"
   y="0px"
   width="700"
   height="700"
   viewBox="0 0 700 700"
   enable-background="new 0 0 410 455"
   xml:space="preserve"
   sodipodi:docname="ceara-sc-logo.svg"
   inkscape:version="0.92.4 (5da689c313, 2019-01-14)"
   inkscape:export-filename="C:\Users\suitedoalex\sites\svg\ceara-sc-logo-0.png"
   inkscape:export-xdpi="561.73712"
   inkscape:export-ydpi="561.73712"><metadata
   id="metadata39"><rdf:RDF><cc:Work
       rdf:about=""><dc:format>image/svg+xml</dc:format><dc:type
         rdf:resource="http://purl.org/dc/dcmitype/StillImage" /><dc:title></dc:title></cc:Work></rdf:RDF></metadata><defs
   id="defs37" /><sodipodi:namedview
   pagecolor="#ffffff"
   bordercolor="#666666"
   borderopacity="1"
   objecttolerance="10"
   gridtolerance="10"
   guidetolerance="10"
   inkscape:pageopacity="0"
   inkscape:pageshadow="2"
   inkscape:window-width="1600"
   inkscape:window-height="837"
   id="namedview35"
   showgrid="false"
   inkscape:zoom="0.73352616"
   inkscape:cx="344.14923"
   inkscape:cy="361.53079"
   inkscape:window-x="-8"
   inkscape:window-y="-8"
   inkscape:window-maximized="1"
   inkscape:current-layer="Camada_1" />
<g
   id="g22"
   transform="matrix(1.1002575,0,0,1.1002575,124.44666,99.691969)"
   inkscape:export-xdpi="85.555527"
   inkscape:export-ydpi="85.555527">
	<path
   d="M 61.817,375.35 C 39.939,363.562 26.734,346.503 19.37,327.142 12.262,308.449 10.759,287.977 12.141,268.328 13.913,243.17 23.092,222.544 31.771,203.045 47.076,168.651 60.518,138.449 9.597,91.444 l -8.563,-7.905 7.06,-9.267 33.473,-43.929 5.137,-6.74 8.23,2.134 c 13.498,3.503 27.063,6.525 40.879,8.243 12.996,1.614 25.969,2.032 38.929,0.516 -0.501,0.071 -0.632,0.092 0.551,-0.065 0.225,-0.029 0.448,-0.056 0.674,-0.085 l -0.001,-0.006 c -0.261,0.035 -0.483,0.065 -0.672,0.091 -0.175,0.021 -0.353,0.042 -0.529,0.063 -0.008,10e-4 -0.014,10e-4 -0.022,0.002 0.006,-0.001 0.016,-0.002 0.022,-0.002 0.354,-0.051 0.878,-0.124 1.258,-0.18 l 0.022,-0.022 c 0.725,-0.089 0.492,-0.051 0.002,0.019 l 0.003,0.026 c 2.589,-0.33 5.404,-0.791 8.442,-1.381 2.792,-0.542 5.491,-1.16 8.091,-1.854 13.443,-3.583 25.488,-9.361 36.007,-17.25 l 0.401,-0.301 8.752,-6.041 7.258,-5.01 7.258,5.01 8.752,6.041 0.351,0.25 0.016,0.013 0.05,0.049 c 1.586,1.189 3.708,2.629 6.359,4.317 2.634,1.677 4.828,2.983 6.578,3.919 11.757,6.283 25.015,10.39 39.643,12.243 13.376,1.693 26.768,1.304 40.18,-0.363 13.816,-1.718 27.382,-4.74 40.881,-8.243 l 8.23,-2.134 5.137,6.74 33.474,43.929 7.057,9.267 -8.562,7.905 c -52.032,48.032 -37.922,78.88 -21.683,114.379 8.55,18.688 17.6,38.465 20.569,62.314 l 0.003,0.022 c 0.659,5.297 1.062,10.664 1.135,16.037 0.078,5.374 -0.176,10.842 -0.83,16.362 -3.414,28.883 -17.539,56.539 -51.412,74.791 l -137.128,73.886 -6.057,3.265 -6.057,-3.265 z M 43.299,318.03 c 5.314,13.975 14.844,26.287 30.631,34.794 l 131.071,70.62 131.071,-70.62 c 25.114,-13.532 35.575,-33.96 38.094,-55.269 0.504,-4.241 0.696,-8.614 0.635,-13.059 -0.065,-4.441 -0.394,-8.869 -0.938,-13.233 l -0.005,-0.022 C 371.347,251.093 363.198,233.274 355.496,216.436 336.05,173.93 319.043,136.742 374.675,80.721 L 353.208,52.553 c -11.977,2.918 -23.941,5.37 -35.916,6.858 -15.131,1.88 -30.556,2.278 -46.489,0.261 -17.741,-2.247 -33.947,-7.297 -48.451,-15.045 -3.354,-1.792 -6.15,-3.4 -8.381,-4.82 -2.117,-1.348 -4.61,-3.092 -7.477,-5.231 l -1.493,-1.031 -1.493,1.031 c -13.111,9.753 -27.969,16.873 -44.417,21.256 -3.245,0.865 -6.511,1.618 -9.792,2.254 -3.007,0.583 -6.351,1.11 -10.03,1.578 l 0.001,0.007 c -0.044,0.004 -0.084,0.011 -0.126,0.016 l -0.001,-0.008 C 123.232,61.689 107.825,61.29 92.709,59.412 80.735,57.924 68.771,55.472 56.793,52.554 l -21.465,28.17 c 54.42,54.873 38.165,91.401 19.771,132.733 -7.704,17.307 -15.852,35.615 -17.326,56.573 -1.163,16.521 -0.043,33.358 5.526,48 z M 135.968,34.346 c 0.008,-10e-4 0.018,-10e-4 0.027,-0.003 l 0.002,-0.003 h 0.019 c 0.011,-0.001 0.022,-0.001 0.034,-0.003 l -0.003,-0.026 c -0.008,10e-4 -0.016,0.003 -0.024,0.003 l -0.025,0.026 h -0.031 z m 3.177,25.342 c -4.301,0.574 2.2,-0.239 0.004,0.037 z m 0,0"
   id="path2"
   inkscape:connector-curvature="0"
   style="fill:#000000" />
	<path
   d="M 67.874,364.088 C 30.206,343.791 22.41,305.35 24.957,269.179 30.009,197.427 103.224,160.466 18.257,82.032 l 33.472,-43.93 c 28.239,7.331 56.56,12.62 85.868,8.907 22.49,-2.848 42.169,-10.581 58.653,-22.943 l 8.751,-6.041 8.751,6.041 c 16.484,12.363 36.164,20.095 58.651,22.943 29.312,3.713 57.629,-1.576 85.868,-8.907 l 33.472,43.93 c -84.967,78.435 -14.088,116.101 -5.169,187.658 4.302,34.512 -3.471,72.32 -44.446,94.398 l -137.127,73.886 z m 0,0"
   id="path4"
   inkscape:connector-curvature="0"
   style="fill:#ffffff" />
	<path
   d="M 346.906,53.659 59.281,207.443 C 65.458,195.6 69.77,182.253 71.185,168.254 75.824,142.493 69.559,115.238 35.329,80.723 L 56.594,52.815 c -10e-4,0 -10e-4,0 -10e-4,0 11.709,2.956 23.173,5.073 34.309,6.361 0.604,0.08 1.205,0.16 1.808,0.235 15.116,1.878 30.523,2.277 46.434,0.267 l 0.001,0.008 c 0.042,-0.005 0.082,-0.012 0.126,-0.016 l -10e-4,-0.007 c 3.679,-0.467 7.023,-0.995 10.03,-1.578 3.281,-0.637 6.547,-1.389 9.792,-2.254 3.66,-0.975 7.307,-2.085 10.806,-3.33 -0.025,0.001 -0.053,0.003 -0.078,0.004 12.984,-4.357 24.798,-10.441 35.182,-18.231 23.725,17.798 52.764,26.906 86.819,26.737 8.605,0.027 17.084,-0.559 25.472,-1.6 9.459,-1.176 18.912,-2.954 28.369,-5.087 z m -207.761,6.029 c -4.301,0.574 2.2,-0.239 0.004,0.037 z m 0,0"
   id="path6"
   inkscape:connector-curvature="0"
   style="fill:#000000" />
	<path
   d="m 96.314,235.52 12.322,-6.703 c 1.144,1.933 1.877,3.185 2.191,3.761 1.699,3.123 2.561,5.813 2.586,8.077 0.051,2.527 -1.218,4.961 -3.815,7.291 -2.592,2.34 -7.557,5.498 -14.884,9.484 -7.694,4.185 -13.264,7.021 -16.689,8.504 -3.426,1.483 -6.206,2.248 -8.324,2.301 -1.895,0.035 -3.573,-0.401 -5.01,-1.309 -1.437,-0.909 -2.88,-2.43 -4.34,-4.583 -1.173,-1.746 -3.067,-5.013 -5.679,-9.814 -2.546,-4.681 -4.292,-8.105 -5.249,-10.271 -0.946,-2.172 -1.475,-3.966 -1.581,-5.389 -0.275,-3.178 1.103,-6.089 4.127,-8.716 3.024,-2.629 9.739,-6.781 20.163,-12.45 5.215,-2.837 9.071,-4.778 11.563,-5.833 2.507,-1.05 4.631,-1.627 6.386,-1.746 2.314,-0.131 4.301,0.464 5.99,1.76 1.677,1.301 3.415,3.605 5.225,6.931 0.093,0.171 0.452,0.854 1.064,2.027 l -12.314,6.699 c -0.792,-1.311 -1.373,-2.162 -1.72,-2.563 -0.358,-0.394 -0.784,-0.646 -1.283,-0.768 -0.701,-0.158 -2.058,0.188 -4.079,1.053 -2.015,0.846 -4.965,2.334 -8.857,4.451 -3.852,2.095 -6.476,3.628 -7.859,4.603 -1.392,0.979 -2.256,1.871 -2.603,2.701 -0.403,0.992 -0.371,2.258 0.101,3.823 0.482,1.559 1.556,3.869 3.221,6.932 1.661,3.054 2.968,5.145 3.905,6.262 0.935,1.115 1.918,1.746 2.958,1.899 0.979,0.162 2.274,-0.083 3.879,-0.72 1.61,-0.653 4.327,-2.015 8.159,-4.099 4.711,-2.563 7.82,-4.358 9.305,-5.363 1.479,-1.015 2.353,-1.937 2.617,-2.773 0.356,-1.083 -0.141,-2.911 -1.476,-5.459 z m 5.254,-35.02 44.783,-24.364 5.17,9.502 -32.644,17.757 3.18,5.844 30.984,-16.856 4.832,8.886 -30.981,16.857 3.523,6.479 32.875,-17.883 5.284,9.713 -45.014,24.49 z m 116.807,-11.156 -7.191,-4.958 -26.737,14.546 0.254,8.73 -14.071,7.656 -0.552,-52.09 19.135,-10.409 43.141,28.918 z m -16.326,-11.465 -16.119,-11.064 -2.456,1.336 0.531,19.543 z m 34.19,1.745 -21.991,-40.425 29.771,-16.196 c 6.996,-3.779 11.219,-5.985 12.675,-6.607 1.456,-0.621 3.039,-0.893 4.751,-0.803 2.042,0.095 3.788,0.797 5.254,2.12 1.463,1.314 3.137,3.717 5.039,7.216 1.601,2.941 2.589,5.194 2.979,6.777 0.389,1.583 0.301,3.058 -0.259,4.438 -0.598,1.479 -1.899,2.986 -3.911,4.513 2.691,-1.216 4.947,-1.474 6.778,-0.807 1.065,0.416 1.986,1.122 2.762,2.114 0.771,1.008 2.111,3.253 4.014,6.751 l 2.047,3.761 -12.142,6.604 -1.178,-2.164 c -1.226,-2.254 -2.176,-3.807 -2.87,-4.674 -0.694,-0.866 -1.398,-1.438 -2.134,-1.708 -0.708,-0.217 -1.499,-0.179 -2.369,0.124 -0.871,0.302 -2.581,1.155 -5.129,2.541 l -17.357,9.443 5.593,10.28 z m 1.236,-27.082 17.327,-9.426 c 2.989,-1.706 4.761,-2.735 5.319,-3.104 0.549,-0.365 0.972,-0.791 1.243,-1.278 0.345,-0.621 0.45,-1.319 0.314,-2.096 -0.151,-0.783 -0.585,-1.845 -1.315,-3.189 -0.714,-1.314 -1.375,-2.238 -1.986,-2.757 -0.594,-0.517 -1.277,-0.76 -2.053,-0.718 -0.544,0.035 -1.12,0.205 -1.749,0.493 -0.619,0.285 -2.364,1.195 -5.216,2.721 l -17.297,9.409 z m 99.289,-27.606 -7.189,-4.956 -26.738,14.544 0.256,8.731 -14.07,7.655 -0.553,-52.088 19.136,-10.411 43.141,28.919 z m -16.324,-11.464 -16.121,-11.063 -2.456,1.336 0.532,19.545 z m -3.577,-24.543 2.873,-12.614 9.948,-2.228 -10.408,16.941 z m 0,0"
   id="path8"
   inkscape:connector-curvature="0"
   style="fill:#000000" />
	<path
   d="m 224.813,65.296 c 0.861,1.591 1.728,3.182 2.588,4.769 0.862,1.587 1.733,3.176 2.599,4.764 h 16.793 c -2.27,0.984 -4.533,1.966 -6.796,2.947 -2.265,0.981 -4.529,1.964 -6.793,2.944 0.862,1.589 1.732,3.178 2.594,4.766 0.862,1.587 1.733,3.177 2.597,4.764 -2.262,-0.981 -4.526,-1.962 -6.789,-2.941 -2.265,-0.981 -4.529,-1.965 -6.792,-2.948 -2.269,0.983 -4.533,1.967 -6.796,2.948 -2.264,0.979 -4.528,1.96 -6.793,2.941 0.862,-1.587 1.733,-3.177 2.594,-4.764 0.861,-1.587 1.731,-3.177 2.598,-4.766 -2.263,-0.98 -4.527,-1.963 -6.791,-2.944 -2.263,-0.981 -4.527,-1.963 -6.792,-2.947 h 16.788 c 0.862,-1.587 1.731,-3.176 2.594,-4.764 0.86,-1.587 1.73,-3.178 2.597,-4.769 z m 0,0"
   id="path10"
   inkscape:connector-curvature="0"
   style="fill:#ffffff" />
	<path
   d="m 180.319,55.672 c 1.103,1.728 2.209,3.458 3.311,5.183 1.101,1.726 2.215,3.454 3.322,5.179 h 21.472 c -2.901,1.069 -5.796,2.138 -8.691,3.204 -2.895,1.066 -5.79,2.135 -8.685,3.201 1.103,1.727 2.215,3.455 3.317,5.179 1.101,1.726 2.214,3.454 3.32,5.179 -2.895,-1.066 -5.79,-2.133 -8.683,-3.199 -2.895,-1.065 -5.79,-2.134 -8.685,-3.202 -2.901,1.067 -5.795,2.137 -8.688,3.202 -2.896,1.066 -5.79,2.133 -8.685,3.199 1.101,-1.725 2.215,-3.453 3.316,-5.179 1.103,-1.725 2.215,-3.453 3.322,-5.179 -2.895,-1.066 -5.789,-2.135 -8.684,-3.201 -2.895,-1.065 -5.788,-2.135 -8.683,-3.204 h 21.465 c 1.102,-1.725 2.215,-3.453 3.316,-5.179 1.103,-1.725 2.216,-3.455 3.323,-5.183 z m 0,0"
   id="path12"
   inkscape:connector-curvature="0"
   style="fill:#ffffff" />
	<path
   d="m 127.636,64.049 c 1.2,1.764 2.405,3.528 3.605,5.289 1.2,1.76 2.411,3.524 3.618,5.283 h 23.384 c -3.159,1.091 -6.311,2.181 -9.464,3.269 -3.152,1.088 -6.306,2.178 -9.459,3.266 1.2,1.762 2.412,3.525 3.612,5.285 1.2,1.761 2.413,3.524 3.618,5.283 -3.152,-1.087 -6.305,-2.175 -9.458,-3.263 -3.152,-1.086 -6.305,-2.178 -9.457,-3.268 -3.159,1.09 -6.311,2.182 -9.464,3.268 -3.154,1.088 -6.305,2.176 -9.458,3.263 1.199,-1.758 2.412,-3.522 3.612,-5.283 1.199,-1.76 2.412,-3.523 3.617,-5.285 -3.152,-1.088 -6.305,-2.178 -9.458,-3.266 -3.152,-1.088 -6.305,-2.178 -9.457,-3.269 h 23.378 c 1.2,-1.759 2.411,-3.522 3.611,-5.283 1.2,-1.761 2.413,-3.525 3.62,-5.289 z m 0,0"
   id="path14"
   inkscape:connector-curvature="0"
   style="fill:#ffffff" />
	<path
   d="m 89.227,86.197 c 1.239,2.128 2.484,4.256 3.721,6.381 1.239,2.122 2.49,4.249 3.733,6.372 h 24.133 c -3.261,1.315 -6.515,2.63 -9.766,3.943 -3.253,1.313 -6.508,2.627 -9.761,3.94 1.238,2.126 2.49,4.253 3.727,6.377 1.239,2.124 2.49,4.25 3.734,6.374 -3.254,-1.313 -6.507,-2.625 -9.76,-3.937 -3.251,-1.312 -6.506,-2.627 -9.76,-3.943 -3.26,1.316 -6.513,2.631 -9.766,3.943 -3.253,1.313 -6.507,2.625 -9.76,3.937 1.239,-2.124 2.488,-4.25 3.727,-6.374 1.238,-2.124 2.49,-4.25 3.733,-6.377 -3.253,-1.313 -6.507,-2.627 -9.76,-3.94 -3.253,-1.313 -6.507,-2.628 -9.76,-3.943 h 24.125 c 1.239,-2.124 2.488,-4.25 3.727,-6.372 1.238,-2.125 2.488,-4.253 3.733,-6.381 z m 0,0"
   id="path16"
   inkscape:connector-curvature="0"
   style="fill:#ffffff" />
	<path
   d="M 125.674,380.301 V 253.563 l -87.05,46.056 c 0.942,6.381 2.455,12.57 4.676,18.411 5.314,13.975 14.844,26.287 30.631,34.794 l 1.451,0.78 -1,-0.531 z m 79.315,41.85 -47.944,-26.296 v -158.89 l 94.113,-49.794 v 209.131 z m 76.957,-251.342 56.188,-29.537 c -4.528,26.23 5.926,50.168 17.361,75.165 4.73,10.344 9.632,21.06 13.291,32.456 2.192,7.45 4.008,15.127 5.134,22.84 0.508,4.212 0.819,8.481 0.88,12.765 0.062,4.444 -0.131,8.817 -0.635,13.059 -1.884,15.937 -8.209,31.38 -21.785,43.815 -4.723,4.215 -10.287,8.144 -16.846,11.702 l -9.534,5.177 0.016,-0.008 -39.676,21.539 39.66,-21.531 -44.055,23.736 V 170.809 Z m 0,0"
   id="path18"
   inkscape:connector-curvature="0"
   style="fill:#000000" />
	<path
   d="m 124.456,113.595 c 1.511,2.567 3.027,5.137 4.537,7.699 1.509,2.562 3.034,5.127 4.551,7.689 h 29.417 c -3.975,1.587 -7.94,3.175 -11.906,4.757 -3.965,1.583 -7.932,3.17 -11.897,4.753 1.509,2.566 3.034,5.131 4.543,7.693 1.509,2.562 3.034,5.129 4.551,7.689 -3.965,-1.583 -7.931,-3.166 -11.898,-4.748 -3.964,-1.583 -7.931,-3.17 -11.897,-4.758 -3.973,1.587 -7.94,3.175 -11.904,4.758 -3.967,1.583 -7.933,3.165 -11.898,4.748 1.509,-2.561 3.034,-5.127 4.543,-7.689 1.509,-2.562 3.034,-5.127 4.551,-7.693 -3.967,-1.583 -7.932,-3.17 -11.898,-4.753 -3.965,-1.583 -7.93,-3.17 -11.896,-4.757 h 29.407 c 1.509,-2.562 3.034,-5.127 4.543,-7.689 1.509,-2.562 3.034,-5.132 4.551,-7.699 z m 0,0"
   id="path20"
   inkscape:connector-curvature="0"
   style="fill:#ffffff" />
</g>
<g
   id="g32"
   transform="matrix(1.1002575,0,0,1.1002575,124.44666,99.691969)"
   inkscape:export-xdpi="85.555527"
   inkscape:export-ydpi="85.555527">
	<polygon
   points="180.768,374.128 187.012,374.128 187.012,395.069 183.049,395.069 183.049,377.432 179.12,377.432 "
   id="polygon24"
   style="fill:#ffffff" />
	<polygon
   points="206.349,374.128 212.59,374.128 212.59,395.069 208.633,395.069 208.633,377.432 204.699,377.432 "
   id="polygon26"
   style="fill:#ffffff" />
	<path
   d="m 201.257,375.576 c -1.213,-1.225 -2.828,-1.838 -4.839,-1.838 -2.13,0 -3.841,0.618 -5.129,1.849 -1.286,1.238 -1.933,2.867 -1.933,4.894 0,1.776 0.533,3.237 1.59,4.375 1.063,1.135 2.429,1.704 4.102,1.704 0.511,0 0.968,-0.045 1.363,-0.143 0.396,-0.091 0.788,-0.238 1.162,-0.435 l -5.609,9.087 h 4.709 c 2.433,-3.645 3.985,-6.616 5.577,-10.715 0.548,-1.411 0.826,-2.714 0.826,-3.904 0.001,-2.026 -0.604,-3.645 -1.819,-4.874 z m -2.845,6.987 c -0.541,0.587 -1.242,0.88 -2.099,0.88 -0.967,0 -1.722,-0.278 -2.261,-0.839 -0.542,-0.558 -0.811,-1.331 -0.811,-2.313 0,-0.925 0.272,-1.672 0.822,-2.25 0.55,-0.576 1.275,-0.865 2.17,-0.865 0.918,0 1.648,0.276 2.183,0.84 0.538,0.559 0.807,1.318 0.807,2.275 -0.001,0.931 -0.27,1.686 -0.811,2.272 z"
   id="path28"
   inkscape:connector-curvature="0"
   style="fill:#ffffff" />
	<path
   d="m 227.559,387.031 v -13.293 h -3.596 l -9.471,14.27 v 1.816 h 9.471 v 5.245 h 3.596 v -5.245 h 2.065 v -2.793 z m -3.511,-8.271 c -0.022,0.338 -0.032,0.846 -0.032,1.503 v 6.769 h -5.479 l 4.244,-6.498 c 0.278,-0.438 0.528,-0.888 0.763,-1.343 0.232,-0.459 0.436,-0.917 0.605,-1.371 -0.047,0.285 -0.078,0.601 -0.101,0.94 z"
   id="path30"
   inkscape:connector-curvature="0"
   style="fill:#ffffff" />
</g>
</svg>